<svg xmlns="http://www.w3.org/2000/svg" viewBox="0 0 256 256" role="img" aria-label="Deep Survey">
  <defs>
    <linearGradient id="bg" x1="28" y1="18" x2="230" y2="238" gradientUnits="userSpaceOnUse">
      <stop offset="0" stop-color="#0f172a"/>
      <stop offset="0.48" stop-color="#312e81"/>
      <stop offset="1" stop-color="#0891b2"/>
    </linearGradient>
    <radialGradient id="glow" cx="70" cy="54" r="150" gradientUnits="userSpaceOnUse">
      <stop offset="0" stop-color="#a7f3d0" stop-opacity="0.95"/>
      <stop offset="0.34" stop-color="#22d3ee" stop-opacity="0.42"/>
      <stop offset="1" stop-color="#22d3ee" stop-opacity="0"/>
    </radialGradient>
    <linearGradient id="ring" x1="54" y1="54" x2="206" y2="206" gradientUnits="userSpaceOnUse">
      <stop offset="0" stop-color="#ecfeff"/>
      <stop offset="0.45" stop-color="#67e8f9"/>
      <stop offset="1" stop-color="#c4b5fd"/>
    </linearGradient>
    <filter id="shadow" x="-20%" y="-20%" width="140%" height="140%">
      <feDropShadow dx="0" dy="14" stdDeviation="18" flood-color="#020617" flood-opacity="0.38"/>
    </filter>
  </defs>
  <circle cx="128" cy="128" r="128" fill="url(#bg)"/>
  <circle cx="128" cy="128" r="128" fill="url(#glow)"/>
  <path d="M52 76c28-34 92-44 135-7 39 34 34 91 4 118-35 31-92 28-122-5-27-30-25-75 2-101 22-21 55-25 78-7" fill="none" stroke="url(#ring)" stroke-width="13" stroke-linecap="round" filter="url(#shadow)"/>
  <path d="M72 168c21 20 60 26 90 7 25-16 35-45 24-71" fill="none" stroke="#e0f2fe" stroke-opacity="0.72" stroke-width="7" stroke-linecap="round"/>
  <circle cx="63" cy="83" r="10" fill="#a7f3d0"/>
  <circle cx="188" cy="67" r="8" fill="#fef3c7"/>
  <circle cx="199" cy="177" r="10" fill="#f0abfc"/>
  <circle cx="82" cy="192" r="7" fill="#67e8f9"/>
  <text x="128" y="156" text-anchor="middle" font-family="Inter, Segoe UI, Arial, sans-serif" font-size="96" font-weight="900" letter-spacing="-8" fill="#ffffff">DS</text>
  <path d="M83 174h90" stroke="#a7f3d0" stroke-width="9" stroke-linecap="round" opacity="0.9"/>
</svg>
