<svg xmlns="http://www.w3.org/2000/svg" viewBox="0 0 256 256" role="img" aria-label="Government">
  <path fill="#111827" d="M128 8c66.3 0 120 53.7 120 120 0 50.4-31.1 93.5-75.1 111.2 36.3-27.1 55.9-74.3 43.5-122.5C199.2 49.9 139.7 21.5 87 47.2c-33.3 16.2-50.2 50-42 82.6 5.3 21 21.3 34.7 41.2 35.2 18 .4 30.1-8.1 40.6-25.5 11.6-19.2 32.9-25.5 53.2-14.8 20.9 11 29.2 35.8 20.3 59.6-13.8 36.7-52.7 58.7-96.6 51C48.8 225.8 8 180.5 8 128 8 61.7 61.7 8 128 8Z"/>
  <path fill="#111827" d="M104.8 47.4C160.3 19.7 222.2 53 237.7 116.6c5.7 23.4 4.2 45.5-3.2 64.9 21.4-63.1-13-125.8-75.4-138.1-19-3.7-37.3-2.1-54.3 4Z"/>
</svg>
